<svg width="21" height="21" viewBox="0 0 21 21" fill="none" xmlns="http://www.w3.org/2000/svg">
<mask id="mask0_835_368" style="mask-type:alpha" maskUnits="userSpaceOnUse" x="0" y="0" width="21" height="21">
<rect x="0.333252" y="0.5" width="20" height="20" fill="#D9D9D9"/>
</mask>
<g mask="url(#mask0_835_368)">
<path d="M9.49988 14.6666H6.16654C5.01377 14.6666 4.03113 14.2603 3.21863 13.4478C2.40613 12.6353 1.99988 11.6527 1.99988 10.4999C1.99988 9.34714 2.40613 8.3645 3.21863 7.552C4.03113 6.7395 5.01377 6.33325 6.16654 6.33325H9.49988V7.99992H6.16654C5.4721 7.99992 4.88182 8.24297 4.39571 8.72909C3.9096 9.2152 3.66654 9.80547 3.66654 10.4999C3.66654 11.1944 3.9096 11.7846 4.39571 12.2708C4.88182 12.7569 5.4721 12.9999 6.16654 12.9999H9.49988V14.6666ZM6.99988 11.3333V9.66659H13.6665V11.3333H6.99988ZM11.1665 14.6666V12.9999H14.4999C15.1943 12.9999 15.7846 12.7569 16.2707 12.2708C16.7568 11.7846 16.9999 11.1944 16.9999 10.4999C16.9999 9.80547 16.7568 9.2152 16.2707 8.72909C15.7846 8.24297 15.1943 7.99992 14.4999 7.99992H11.1665V6.33325H14.4999C15.6527 6.33325 16.6353 6.7395 17.4478 7.552C18.2603 8.3645 18.6665 9.34714 18.6665 10.4999C18.6665 11.6527 18.2603 12.6353 17.4478 13.4478C16.6353 14.2603 15.6527 14.6666 14.4999 14.6666H11.1665Z" fill="#30343D"/>
</g>
</svg>
